<svg xmlns="http://www.w3.org/2000/svg" width="512" height="512" style="" viewBox="0 0 512 512" data-svgdocument="" id="_YodPmaxCuMPuGHw7sqt54" class="fl-svgdocument" x="0" y="0" xmlns:xlink="http://www.w3.org/1999/xlink"><defs id="_6mUSJ8lk5fhoTTOndkLaV" transform="matrix(0.8863573204430831, 0, 0, 0.8863573204430831, -28.34294311392791, 69.80256911600202)"/><path id="_0jdQD07NULSEAxiaxZPOE" d="M88.307,0.013C39.536,0.013,0,39.549,0,88.32c0,48.77,39.536,88.307,88.307,88.307  c48.77,0,88.307-39.537,88.307-88.307C176.613,39.549,137.076,0.013,88.307,0.013z M88.307,163.341  c-41.433,0-75.021-33.589-75.021-75.021c0-41.433,33.587-75.021,75.021-75.021c41.432,0,75.021,33.587,75.021,75.021  C163.327,129.752,129.738,163.341,88.307,163.341z" stroke="none" fill="#1c9954" transform="matrix(1.0979308289015153, 0, 0, 1.0979308289015153, 159.04502508505786, 75.98783357730969)"/><path id="_j680GwHHsxer36p6m-UmU" fill="#1d2936" transform="matrix(0.8376963762617231, 0, 0, 0.8376963762617231, 255.4555024683228, 357.11211805058264)" text="Company" text-anchor="middle" font-size="100" letter-spacing="0" side="left" offset="0.5" dx="0" dy="0" space="preserve" href="" font-family="Bungee" font-scale="contain" x="0" y="0" data-fl-textpath="" d="M-198.65000000000003 0L-198.65000000000003 0L-223.05 0Q-235.55 0 -241.60000000000002-5Q-247.65-10 -247.65-20.4L-247.65-20.4L-247.65-51.5Q-247.65-61.9 -241.60000000000002-66.95Q-235.55-72 -223.05-72L-223.05-72L-198.65000000000003-72Q-196.75-72 -195.90000000000003-71.15Q-195.05-70.3 -195.05-68.4L-195.05-68.4L-195.05-56.3Q-195.05-54.4 -195.90000000000003-53.55Q-196.75-52.7 -198.65000000000003-52.7L-198.65000000000003-52.7L-218.75-52.7Q-221.85000000000002-52.7 -223.35000000000002-51.45Q-224.85000000000002-50.2 -224.85000000000002-47.7L-224.85000000000002-47.7L-224.85000000000002-23.9Q-224.85000000000002-21.4 -223.35000000000002-20.25Q-221.85000000000002-19.1 -218.75-19.1L-218.75-19.1L-198.65000000000003-19.1Q-196.75-19.1 -195.90000000000003-18.25Q-195.05-17.4 -195.05-15.5L-195.05-15.5L-195.05-3.6Q-195.05-1.7 -195.90000000000003-0.85Q-196.75 0 -198.65000000000003 0ZM-123.25-53L-123.25-18.9Q-123.25-14.3 -124.60000000000001-10.55Q-125.95-6.8 -129.4-4.15Q-132.85000000000002-1.5 -138.9 0Q-144.95 1.5 -154.25 1.5L-154.25 1.5Q-163.55 1.5 -169.65 0Q-175.75-1.5 -179.20000000000002-4.15Q-182.65-6.8 -184-10.55Q-185.35-14.3 -185.35-18.9L-185.35-18.9L-185.35-53Q-185.35-57.6 -184-61.35Q-182.65-65.1 -179.20000000000002-67.8Q-175.75-70.5 -169.65-72Q-163.55-73.5 -154.25-73.5L-154.25-73.5Q-144.95-73.5 -138.9-72Q-132.85000000000002-70.5 -129.4-67.8Q-125.95-65.1 -124.60000000000001-61.35Q-123.25-57.6 -123.25-53L-123.25-53ZM-162.65-49.4L-162.65-22.5Q-162.65-20.5 -161.15-19.15Q-159.65-17.8 -154.25-17.8L-154.25-17.8Q-148.85000000000002-17.8 -147.35000000000002-19.15Q-145.85000000000002-20.5 -145.85000000000002-22.5L-145.85000000000002-22.5L-145.85000000000002-49.4Q-145.85000000000002-51.3 -147.35000000000002-52.65Q-148.85000000000002-54 -154.25-54L-154.25-54Q-159.65-54 -161.15-52.65Q-162.65-51.3 -162.65-49.4L-162.65-49.4ZM-92.05000000000001 0L-92.05000000000001 0L-106.95 0Q-108.85000000000001 0 -109.7-0.85Q-110.55-1.7 -110.55-3.6L-110.55-3.6L-110.55-68.4Q-110.55-70.3 -109.7-71.15Q-108.85000000000001-72 -106.95-72L-106.95-72L-90.85-72Q-89.25-72 -88.2-71.3Q-87.15-70.6 -86.25-69L-86.25-69L-77.25-52.7Q-76.75-51.8 -76.4-51.4Q-76.05000000000001-51 -75.45-51L-75.45-51L-74.55000000000001-51Q-73.95-51 -73.6-51.4Q-73.25-51.8 -72.75-52.7L-72.75-52.7L-63.85-69Q-62.95-70.6 -61.900000000000006-71.3Q-60.85-72 -59.25-72L-59.25-72L-43.05-72Q-41.150000000000006-72 -40.3-71.15Q-39.45-70.3 -39.45-68.4L-39.45-68.4L-39.45-3.6Q-39.45-1.7 -40.3-0.85Q-41.150000000000006 0 -43.05 0L-43.05 0L-58.45 0Q-60.35 0 -61.2-0.85Q-62.050000000000004-1.7 -62.050000000000004-3.6L-62.050000000000004-3.6L-62.050000000000004-38.8L-67.95-27.9Q-68.85-26.2 -70.1-25.45Q-71.35-24.7 -73.25-24.7L-73.25-24.7L-77.25-24.7Q-79.15-24.7 -80.4-25.45Q-81.65-26.2 -82.55000000000001-27.9L-82.55000000000001-27.9L-88.45-38.8L-88.45-3.6Q-88.45-1.7 -89.30000000000001-0.85Q-90.15 0 -92.05000000000001 0ZM-6.549999999999997 0L-6.549999999999997 0L-22.049999999999997 0Q-23.949999999999996 0 -24.799999999999997-0.85Q-25.65-1.7 -25.65-3.6L-25.65-3.6L-25.65-68.4Q-25.65-70.3 -24.799999999999997-71.15Q-23.949999999999996-72 -22.049999999999997-72L-22.049999999999997-72L 8.550000000000004-72Q 22.150000000000006-72  27.150000000000006-66.6Q 32.150000000000006-61.2  32.150000000000006-52.5L 32.150000000000006-52.5L 32.150000000000006-39.7Q 32.150000000000006-31  27.150000000000006-25.6Q 22.150000000000006-20.2  8.550000000000004-20.2L 8.550000000000004-20.2L-2.9499999999999957-20.2L-2.9499999999999957-3.6Q-2.9499999999999957-1.7 -3.799999999999997-0.85Q-4.649999999999999 0 -6.549999999999997 0ZM 5.850000000000001-53.3L-3.1499999999999986-53.3L-3.1499999999999986-38.2L 5.850000000000001-38.2Q 8.75-38.2  9.650000000000006-39.7Q 10.550000000000004-41.2  10.550000000000004-43.1L 10.550000000000004-43.1L 10.550000000000004-48.4Q 10.550000000000004-50.3  9.650000000000006-51.8Q 8.75-53.3  5.850000000000001-53.3L 5.850000000000001-53.3ZM 67.65-51L 67.65-51L 62.95-35.8L 78.65-35.8L 73.95-51Q 73.55000000000001-51.9  73.10000000000001-52.3Q 72.65-52.7  72.05000000000001-52.7L 72.05000000000001-52.7L 69.55000000000001-52.7Q 68.95-52.7  68.5-52.3Q 68.05000000000001-51.9  67.65-51ZM 61.95-17.6L 61.95-3.6Q 61.95-1.7  61.10000000000001-0.85Q 60.25000000000001 0  58.35000000000001 0L 58.35000000000001 0L 43.650000000000006 0Q 41.75000000000001 0  40.900000000000006-0.85Q 40.050000000000004-1.7  40.050000000000004-3.6L 40.050000000000004-3.6L 40.050000000000004-30Q 40.050000000000004-33  41.00000000000001-36.9Q 41.95-40.8  43.95-46L 43.95-46L 52.650000000000006-68.7Q 53.25000000000001-70.4  54.50000000000001-71.2Q 55.75000000000001-72  57.75000000000001-72L 57.75000000000001-72L 84.65-72Q 86.55000000000001-72  87.80000000000001-71.2Q 89.05000000000001-70.4  89.65-68.7L 89.65-68.7L 98.35000000000001-46Q 100.35000000000001-40.8  101.30000000000001-36.9Q 102.25-33  102.25-30L 102.25-30L 102.25-3.6Q 102.25-1.7  101.4-0.85Q 100.55000000000001 0  98.65 0L 98.65 0L 83.55000000000001 0Q 81.55000000000001 0  80.60000000000001-0.85Q 79.65-1.7  79.65-3.6L 79.65-3.6L 79.65-17.6L 61.95-17.6ZM 133.15 0L 133.15 0L 118.15 0Q 116.25 0  115.4-0.85Q 114.55000000000001-1.7  114.55000000000001-3.6L 114.55000000000001-3.6L 114.55000000000001-68.4Q 114.55000000000001-70.3  115.4-71.15Q 116.25-72  118.15-72L 118.15-72L 128.55-72Q 130.45000000000002-72  131.8-71.4Q 133.15-70.8  134.45000000000002-69.3L 134.45000000000002-69.3L 153.85000000000002-47.1L 153.85000000000002-68.4Q 153.85000000000002-70.3  154.7-71.15Q 155.55-72  157.45-72L 157.45-72L 172.45-72Q 174.35000000000002-72  175.2-71.15Q 176.05-70.3  176.05-68.4L 176.05-68.4L 176.05-3.6Q 176.05-1.7  175.2-0.85Q 174.35000000000002 0  172.45 0L 172.45 0L 157.45 0Q 155.55 0  154.7-0.85Q 153.85000000000002-1.7  153.85000000000002-3.6L 153.85000000000002-3.6L 153.85000000000002-15.9L 136.75-36.6L 136.75-3.6Q 136.75-1.7  135.9-0.85Q 135.05 0  133.15 0ZM 226.35 0L 226.35 0L 210.14999999999998 0Q 208.25 0  207.39999999999998-0.85Q 206.54999999999998-1.7  206.54999999999998-3.6L 206.54999999999998-3.6L 206.54999999999998-16.4L 191.25-36.9Q 188.95-40  188.2-42.3Q 187.45-44.6  187.45-49.2L 187.45-49.2L 187.45-68.4Q 187.45-70.3  188.29999999999998-71.15Q 189.14999999999998-72  191.04999999999998-72L 191.04999999999998-72L 206.45-72Q 208.35-72  209.2-71.15Q 210.04999999999998-70.3  210.04999999999998-68.4L 210.04999999999998-68.4L 210.04999999999998-52Q 210.04999999999998-51  210.14999999999998-49.9Q 210.25-48.8  210.95-47.8L 210.95-47.8L 215.54999999999998-40.6Q 216.04999999999998-39.7  216.6-39.3Q 217.14999999999998-38.9  217.95-38.9L 217.95-38.9L 218.95-38.9Q 219.75-38.9  220.29999999999998-39.3Q 220.85-39.7  221.35-40.6L 221.35-40.6L 225.95-47.8Q 226.64999999999998-48.8  226.75-49.9Q 226.85-51  226.85-52L 226.85-52L 226.85-68.4Q 226.85-70.3  227.7-71.15Q 228.54999999999998-72  230.45-72L 230.45-72L 245.35-72Q 247.25-72  248.1-71.15Q 248.95-70.3  248.95-68.4L 248.95-68.4L 248.95-49.2Q 248.95-44.6  248.14999999999998-42.3Q 247.35-40  245.14999999999998-36.9L 245.14999999999998-36.9L 229.95-16.3L 229.95-3.6Q 229.95-1.7  229.1-0.85Q 228.25 0  226.35 0Z"/><path id="_2iCrrnB8Luf0nOxoACzov" fill="#1d2936" transform="matrix(0.8376963762617231, 0, 0, 0.8376963762617231, 255.16230768088388, 435.9978933216201)" text="Name" text-anchor="middle" font-size="100" letter-spacing="0" side="left" offset="0.5" dx="0" dy="0" space="preserve" href="" font-family="Bungee" font-scale="contain" x="0" y="0" data-fl-textpath="" d="M-123.80000000000001 0L-123.80000000000001 0L-138.8 0Q-140.70000000000002 0 -141.55-0.85Q-142.4-1.7 -142.4-3.6L-142.4-3.6L-142.4-68.4Q-142.4-70.3 -141.55-71.15Q-140.70000000000002-72 -138.8-72L-138.8-72L-128.4-72Q-126.50000000000001-72 -125.15-71.4Q-123.80000000000001-70.8 -122.50000000000001-69.3L-122.50000000000001-69.3L-103.10000000000001-47.1L-103.10000000000001-68.4Q-103.10000000000001-70.3 -102.25000000000001-71.15Q-101.4-72 -99.50000000000001-72L-99.50000000000001-72L-84.50000000000001-72Q-82.60000000000001-72 -81.75000000000001-71.15Q-80.9-70.3 -80.9-68.4L-80.9-68.4L-80.9-3.6Q-80.9-1.7 -81.75000000000001-0.85Q-82.60000000000001 0 -84.50000000000001 0L-84.50000000000001 0L-99.50000000000001 0Q-101.4 0 -102.25000000000001-0.85Q-103.10000000000001-1.7 -103.10000000000001-3.6L-103.10000000000001-3.6L-103.10000000000001-15.9L-120.20000000000002-36.6L-120.20000000000002-3.6Q-120.20000000000002-1.7 -121.05000000000001-0.85Q-121.9 0 -123.80000000000001 0ZM-41.000000000000014-51L-41.000000000000014-51L-45.70000000000002-35.8L-30.000000000000014-35.8L-34.70000000000002-51Q-35.100000000000016-51.9 -35.55000000000001-52.3Q-36.000000000000014-52.7 -36.600000000000016-52.7L-36.600000000000016-52.7L-39.100000000000016-52.7Q-39.70000000000002-52.7 -40.15000000000001-52.3Q-40.600000000000016-51.9 -41.000000000000014-51ZM-46.70000000000002-17.6L-46.70000000000002-3.6Q-46.70000000000002-1.7 -47.55000000000001-0.85Q-48.40000000000001 0 -50.30000000000001 0L-50.30000000000001 0L-65.00000000000001 0Q-66.90000000000002 0 -67.75000000000001-0.85Q-68.60000000000001-1.7 -68.60000000000001-3.6L-68.60000000000001-3.6L-68.60000000000001-30Q-68.60000000000001-33 -67.65000000000002-36.9Q-66.70000000000002-40.8 -64.70000000000002-46L-64.70000000000002-46L-56.000000000000014-68.7Q-55.40000000000001-70.4 -54.15000000000001-71.2Q-52.90000000000001-72 -50.90000000000001-72L-50.90000000000001-72L-24.000000000000014-72Q-22.100000000000016-72 -20.850000000000016-71.2Q-19.600000000000016-70.4 -19.000000000000014-68.7L-19.000000000000014-68.7L-10.300000000000011-46Q-8.300000000000011-40.8 -7.3500000000000085-36.9Q-6.40000000000002-33 -6.40000000000002-30L-6.40000000000002-30L-6.40000000000002-3.6Q-6.40000000000002-1.7 -7.250000000000014-0.85Q-8.100000000000009 0 -10.000000000000014 0L-10.000000000000014 0L-25.100000000000016 0Q-27.100000000000016 0 -28.05000000000001-0.85Q-29.000000000000014-1.7 -29.000000000000014-3.6L-29.000000000000014-3.6L-29.000000000000014-17.6L-46.70000000000002-17.6ZM 24.399999999999984 0L 24.399999999999984 0L 9.499999999999986 0Q 7.599999999999985 0  6.749999999999986-0.85Q 5.899999999999986-1.7  5.899999999999986-3.6L 5.899999999999986-3.6L 5.899999999999986-68.4Q 5.899999999999986-70.3  6.749999999999986-71.15Q 7.599999999999985-72  9.499999999999986-72L 9.499999999999986-72L 25.599999999999987-72Q 27.199999999999985-72  28.249999999999986-71.3Q 29.299999999999986-70.6  30.199999999999985-69L 30.199999999999985-69L 39.19999999999999-52.7Q 39.69999999999999-51.8  40.04999999999998-51.4Q 40.399999999999984-51  40.999999999999986-51L 40.999999999999986-51L 41.899999999999984-51Q 42.499999999999986-51  42.84999999999999-51.4Q 43.19999999999999-51.8  43.69999999999999-52.7L 43.69999999999999-52.7L 52.59999999999999-69Q 53.499999999999986-70.6  54.54999999999998-71.3Q 55.59999999999999-72  57.19999999999999-72L 57.19999999999999-72L 73.39999999999999-72Q 75.29999999999998-72  76.14999999999999-71.15Q 76.99999999999999-70.3  76.99999999999999-68.4L 76.99999999999999-68.4L 76.99999999999999-3.6Q 76.99999999999999-1.7  76.14999999999999-0.85Q 75.29999999999998 0  73.39999999999999 0L 73.39999999999999 0L 57.999999999999986 0Q 56.09999999999999 0  55.249999999999986-0.85Q 54.399999999999984-1.7  54.399999999999984-3.6L 54.399999999999984-3.6L 54.399999999999984-38.8L 48.499999999999986-27.9Q 47.59999999999999-26.2  46.34999999999999-25.45Q 45.09999999999999-24.7  43.19999999999999-24.7L 43.19999999999999-24.7L 39.19999999999999-24.7Q 37.29999999999998-24.7  36.04999999999998-25.45Q 34.79999999999998-26.2  33.899999999999984-27.9L 33.899999999999984-27.9L 27.999999999999986-38.8L 27.999999999999986-3.6Q 27.999999999999986-1.7  27.149999999999984-0.85Q 26.299999999999986 0  24.399999999999984 0ZM 140.79999999999998 0L 140.79999999999998 0L 94.39999999999999 0Q 92.49999999999999 0  91.64999999999999-0.85Q 90.8-1.7  90.8-3.6L 90.8-3.6L 90.8-68.4Q 90.8-70.3  91.64999999999999-71.15Q 92.49999999999999-72  94.39999999999999-72L 94.39999999999999-72L 140.79999999999998-72Q 142.7-72  143.54999999999998-71.15Q 144.39999999999998-70.3  144.39999999999998-68.4L 144.39999999999998-68.4L 144.39999999999998-56.7Q 144.39999999999998-54.8  143.54999999999998-53.95Q 142.7-53.1  140.79999999999998-53.1L 140.79999999999998-53.1L 113.19999999999999-53.1L 113.19999999999999-45.4L 132.7-45.4Q 134.6-45.4  135.45-44.55Q 136.29999999999998-43.7  136.29999999999998-41.8L 136.29999999999998-41.8L 136.29999999999998-31.1Q 136.29999999999998-29.2  135.45-28.35Q 134.6-27.5  132.7-27.5L 132.7-27.5L 113.19999999999999-27.5L 113.19999999999999-18.9L 140.79999999999998-18.9Q 142.7-18.9  143.54999999999998-18.05Q 144.39999999999998-17.2  144.39999999999998-15.3L 144.39999999999998-15.3L 144.39999999999998-3.6Q 144.39999999999998-1.7  143.54999999999998-0.85Q 142.7 0  140.79999999999998 0Z"/><g id="_36D3Fpvw8BhKXlW5C9wVS" transform="matrix(0.812500046073743, 0, 0, 0.812500046073743, 48.535472538580244, 47.99998656938946)"><path id="_DM-25yiJOpjY_yesepP-5" d="M19,6H5C4.4,6,4,6.4,4,7v10c0,0.6,0.4,1,1,1h14c0.6,0,1-0.4,1-1V7C20,6.4,19.6,6,19,6z M18,16H6V8h12V16z" stroke="none" fill="#1d2936" transform="matrix(8.41717529296875, 0, 0, 8.41717529296875, 154.3348388671875, 45.88119125366211)"/><path id="_rO_PbUmBbAggpYK0ds17q" d="M456.26,294.24H44.338C19.952,294.24,0,274.286,0,249.9c0-24.386,19.952-44.338,44.338-44.338H456.26  c24.388,0,44.34,19.953,44.34,44.338C500.6,274.286,480.646,294.24,456.26,294.24" stroke="none" fill="#1d2936" transform="matrix(0.13254450261592865, 0, 0, 0.1567625254392624, 222.21922302246094, 175.28709411621094)"/><path id="_PwCsJ5XFgxHZ2ZBYDqqYB" d="M972-229c8-0.2,12,9.4,6.3,15l-40.8,40.8c-2.5,2.5-6.7,2.5-9.2,0L907.6-194c-8.6-8.2,4.1-20.9,12.3-12.3l11.5,11.5   c0.8,0.8,2.2,0.8,3.1,0l31.5-31.5C967.6-228,969.7-228.9,972-229L972-229z" stroke="none" fill="#1c9954" transform="matrix(0.7904669642448425, 0, 0, 0.7904669642448425, -489.85443115234375, 306.41656494140625)"/></g></svg>